<svg width="63" height="18" viewBox="0 0 63 18" fill="none" xmlns="http://www.w3.org/2000/svg">
<path d="M5.284 13H1.384V11.968L2.428 11.488V5.944L1.384 5.464V4.432H5.284V5.464L4.24 5.944V11.488L5.284 11.968V13ZM10.0441 13H8.23206V5.944H5.90406V4.432H12.3721V5.944H10.0441V13ZM15.0733 4.564C15.0013 4.844 14.9093 5.148 14.7973 5.476C14.6853 5.796 14.5653 6.12 14.4373 6.448C14.3093 6.768 14.1773 7.076 14.0413 7.372H12.7573C12.8133 7.132 12.8693 6.884 12.9253 6.628C12.9813 6.372 13.0333 6.116 13.0813 5.86C13.1373 5.596 13.1853 5.344 13.2253 5.104C13.2733 4.864 13.3133 4.64 13.3453 4.432H14.9893L15.0733 4.564ZM21.3468 10.624C21.3468 11.128 21.2228 11.568 20.9748 11.944C20.7268 12.32 20.3668 12.612 19.8948 12.82C19.4308 13.02 18.8628 13.12 18.1908 13.12C17.8948 13.12 17.6028 13.1 17.3148 13.06C17.0348 13.02 16.7628 12.964 16.4988 12.892C16.2428 12.812 15.9988 12.716 15.7668 12.604V10.912C16.1748 11.088 16.5948 11.252 17.0268 11.404C17.4668 11.548 17.9028 11.62 18.3348 11.62C18.6308 11.62 18.8668 11.58 19.0428 11.5C19.2268 11.42 19.3588 11.312 19.4388 11.176C19.5268 11.04 19.5708 10.884 19.5708 10.708C19.5708 10.492 19.4948 10.308 19.3428 10.156C19.1988 10.004 19.0028 9.864 18.7548 9.736C18.5068 9.6 18.2228 9.456 17.9028 9.304C17.7028 9.208 17.4868 9.096 17.2548 8.968C17.0228 8.832 16.7988 8.668 16.5828 8.476C16.3748 8.276 16.2028 8.036 16.0668 7.756C15.9308 7.476 15.8628 7.14 15.8628 6.748C15.8628 6.236 15.9788 5.8 16.2108 5.44C16.4508 5.072 16.7868 4.792 17.2188 4.6C17.6588 4.408 18.1748 4.312 18.7668 4.312C19.2148 4.312 19.6388 4.364 20.0388 4.468C20.4468 4.572 20.8708 4.72 21.3108 4.912L20.7228 6.328C20.3308 6.168 19.9788 6.044 19.6668 5.956C19.3548 5.868 19.0348 5.824 18.7068 5.824C18.4828 5.824 18.2908 5.86 18.1308 5.932C17.9708 6.004 17.8468 6.104 17.7588 6.232C17.6788 6.36 17.6388 6.512 17.6388 6.688C17.6388 6.888 17.6988 7.06 17.8188 7.204C17.9388 7.34 18.1188 7.472 18.3588 7.6C18.5988 7.728 18.8988 7.88 19.2588 8.056C19.6988 8.264 20.0708 8.48 20.3748 8.704C20.6868 8.928 20.9268 9.192 21.0948 9.496C21.2628 9.8 21.3468 10.176 21.3468 10.624Z" fill="#ADCF2D"/>
<path d="M33.1254 8.632C33.1254 9.592 32.9414 10.396 32.5734 11.044C32.2054 11.692 31.6694 12.18 30.9654 12.508C30.2694 12.836 29.4294 13 28.4454 13H26.0214V4.432H28.7094C29.6054 4.432 30.3814 4.592 31.0374 4.912C31.7014 5.232 32.2134 5.704 32.5734 6.328C32.9414 6.944 33.1254 7.712 33.1254 8.632ZM31.2414 8.68C31.2414 8.048 31.1494 7.528 30.9654 7.12C30.7814 6.712 30.5054 6.412 30.1374 6.22C29.7774 6.02 29.3334 5.92 28.8054 5.92H27.8334V11.5H28.6134C29.5014 11.5 30.1614 11.264 30.5934 10.792C31.0254 10.32 31.2414 9.616 31.2414 8.68ZM39.9138 13L39.2898 10.96H36.1698L35.5458 13H33.5898L36.6138 4.396H38.8338L41.8698 13H39.9138ZM38.2338 7.444C38.1938 7.308 38.1418 7.136 38.0778 6.928C38.0138 6.72 37.9498 6.508 37.8858 6.292C37.8218 6.076 37.7698 5.888 37.7298 5.728C37.6898 5.888 37.6338 6.088 37.5618 6.328C37.4978 6.56 37.4338 6.784 37.3698 7C37.3138 7.208 37.2698 7.356 37.2378 7.444L36.6258 9.436H38.8578L38.2338 7.444ZM49.1945 4.432L46.2785 13H44.2985L41.3945 4.432H43.2305L44.8385 9.532C44.8705 9.62 44.9145 9.784 44.9705 10.024C45.0345 10.256 45.0985 10.504 45.1625 10.768C45.2265 11.024 45.2705 11.24 45.2945 11.416C45.3185 11.24 45.3585 11.024 45.4145 10.768C45.4785 10.504 45.5425 10.256 45.6065 10.024C45.6705 9.784 45.7145 9.62 45.7385 9.532L47.3585 4.432H49.1945ZM53.4832 13H49.5832V11.968L50.6272 11.488V5.944L49.5832 5.464V4.432H53.4832V5.464L52.4392 5.944V11.488L53.4832 11.968V13ZM62.0473 8.632C62.0473 9.592 61.8633 10.396 61.4953 11.044C61.1273 11.692 60.5913 12.18 59.8873 12.508C59.1913 12.836 58.3513 13 57.3673 13H54.9433V4.432H57.6313C58.5273 4.432 59.3033 4.592 59.9593 4.912C60.6233 5.232 61.1353 5.704 61.4953 6.328C61.8633 6.944 62.0473 7.712 62.0473 8.632ZM60.1633 8.68C60.1633 8.048 60.0713 7.528 59.8873 7.12C59.7033 6.712 59.4273 6.412 59.0593 6.22C58.6993 6.02 58.2553 5.92 57.7273 5.92H56.7553V11.5H57.5353C58.4233 11.5 59.0833 11.264 59.5153 10.792C59.9473 10.32 60.1633 9.616 60.1633 8.68Z" fill="#16D1AA"/>
</svg>
